<?xml version="1.0" encoding="utf-8"?>
<!-- Generator: Adobe Illustrator 16.0.0, SVG Export Plug-In . SVG Version: 6.00 Build 0)  -->
<!DOCTYPE svg PUBLIC "-//W3C//DTD SVG 1.0//EN" "http://www.w3.org/TR/2001/REC-SVG-20010904/DTD/svg10.dtd">
<svg version="1.0" id="Layer_1" xmlns="http://www.w3.org/2000/svg" xmlns:xlink="http://www.w3.org/1999/xlink" x="0px" y="0px"
	 width="800px" height="800px" viewBox="0 0 800 800" enable-background="new 0 0 800 800" xml:space="preserve">
<g>
	<path fill="#F90F0D" stroke="#F90F0D" stroke-width="0.0938" stroke-miterlimit="10" d="M451.92,23.889
		c11.809,13.444,15.705,32.667,12.312,50.006c-3.645,19.475-14.449,36.687-27.138,51.513c-10.178,11.936-21.862,22.49-34.049,32.29
		c-14.199,11.434-28.145,23.747-37.065,39.829c-7.539,13.066-9.298,29.149-4.146,43.346c8.418,24.375,28.019,42.467,38.698,65.46
		c-11.81-10.428-23.369-21.233-34.174-32.667c-11.308-12.062-21.988-24.877-29.023-39.955c-4.774-10.554-6.91-22.867-3.267-34.048
		c3.644-11.434,11.81-20.606,19.977-29.149c22.741-22.741,50.761-39.452,72.999-62.57c12.313-12.69,22.491-27.893,26.007-45.357
		C455.939,49.771,454.558,36.579,451.92,23.889L451.92,23.889z"/>
	<path fill="#F90F0D" stroke="#F90F0D" stroke-width="0.0938" stroke-miterlimit="10" d="M433.323,166.997
		c24.375-17.967,52.896-29.401,81.793-37.693c-22.866,14.574-46.737,27.892-66.465,46.613c-7.161,6.91-13.945,14.826-17.087,24.5
		c-2.388,7.161-1.382,15.077,1.509,21.862c5.276,12.061,14.197,21.862,20.981,32.918c5.779,9.423,6.786,21.485,2.388,31.662
		c-6.66,14.952-19.728,25.882-33.295,34.552c-1.76,1.004-3.267,2.89-5.404,3.141c9.049-8.167,16.084-19.726,15.831-32.165
		c-0.251-9.297-5.401-17.464-11.433-24.124c-12.439-14.826-22.867-33.672-20.73-53.649
		C403.548,194.637,417.869,178.555,433.323,166.997L433.323,166.997z"/>
	<path fill="#2A56A5" stroke="#2A56A5" stroke-width="0.0938" stroke-miterlimit="10" d="M519.768,312.238
		c5.275-6.407,13.692-8.041,21.358-9.045c13.317-1.759,27.514,1.633,37.564,10.805c8.295,7.413,12.943,18.971,11.184,30.154
		c-1.885,12.941-10.555,23.746-20.353,31.913c-17.716,14.198-39.578,22.49-61.44,28.019c1.257-1.385,2.638-2.641,4.272-3.644
		c16.584-8.921,33.042-19.35,45.231-33.924c7.413-9.046,13.191-20.857,10.805-32.792c-2.514-13.821-15.956-23.873-29.652-24.626
		C532.203,308.469,526.049,310.982,519.768,312.238L519.768,312.238z"/>
	<path fill="#2A56A5" stroke="#2A56A5" stroke-width="0.0938" stroke-miterlimit="10" d="M267.224,323.672
		c23.119-9.925,48.247-16.333,73.501-15.956c-14.7,4.271-29.777,7.916-43.598,14.449c-3.267,1.759-7.036,3.392-8.921,6.784
		c-1.006,2.639,1.759,4.398,3.769,5.277c8.543,3.518,17.966,4.021,27.139,4.9c32.164,2.136,64.455,0.879,96.495-1.131
		c31.661-2.01,63.071-6.282,94.356-11.308c-6.911,3.267-13.945,6.534-20.354,10.679c-3.269,2.262-7.288,2.891-10.932,3.77
		c-38.446,8.544-77.898,11.183-117.099,11.811c-15.203,0.125-30.28-0.126-45.357-1.131c-16.836-1.131-33.798-2.387-50.257-6.785
		c-4.774-1.382-9.8-2.889-13.569-6.282c-1.885-1.507-1.885-4.523-0.251-6.282C256.294,328.195,262.073,326.185,267.224,323.672
		L267.224,323.672z"/>
	<path fill="#2A56A5" stroke="#2A56A5" stroke-width="0.0938" stroke-miterlimit="10" d="M296.876,377.321
		c6.534-5.151,14.323-8.041,22.113-10.805c-2.513,3.015-6.031,5.906-6.282,10.051c-0.125,2.639,2.011,4.649,4.146,5.905
		c4.146,2.136,8.794,2.89,13.443,3.518c24.124,2.513,48.499,3.895,72.872,2.261c22.238-1.131,44.354-4.774,66.342-8.669
		c6.028,5.654,13.191,9.549,20.729,12.941c-26.512,7.79-53.774,12.313-81.167,14.448c-25.881,1.76-52.141,1.635-77.897-2.514
		c-10.176-1.883-20.605-4.019-29.903-8.793c-3.77-2.011-8.041-4.649-9.172-9.046C291.348,382.85,294.112,379.457,296.876,377.321
		L296.876,377.321z"/>
	<path fill="#2A56A5" stroke="#2A56A5" stroke-width="0.0938" stroke-miterlimit="10" d="M311.451,432.102
		c5.78-4.648,12.941-7.035,19.977-9.047c-2.261,2.137-6.282,4.773-4.523,8.418c3.392,4.398,9.674,4.9,14.7,6.031
		c21.233,2.639,42.718,4.398,63.953,2.764c16.08-1.004,31.913-3.895,47.619-6.658c9.045,5.277,18.469,9.799,28.142,13.822
		c-14.824,6.658-30.782,10.93-46.738,13.945c-26.888,4.771-54.654,5.4-81.667,1.131c-11.936-2.137-24.123-4.9-34.929-10.807
		c-4.146-2.385-8.543-5.15-10.302-9.799C306.299,438.258,308.561,434.363,311.451,432.102L311.451,432.102z"/>
	<path fill="#2A56A5" stroke="#2A56A5" stroke-width="0.0938" stroke-miterlimit="10" d="M241.719,467.66
		c11.559-3.896,23.495-7.037,35.683-7.414c4.9-0.125,9.925,0.125,14.197,2.637c-14.574,0.881-29.148,4.523-42.215,11.184
		c-2.891,1.635-6.157,3.518-7.288,6.91c0,3.895,4.397,5.15,7.288,6.406c18.218,6.787,37.692,8.92,56.79,10.934
		c56.917,4.773,114.208,3.516,171.125-1.635c21.483-2.389,43.096-4.775,63.952-10.68c6.657-2.262,14.195-4.523,18.594-10.43
		c2.641-3.516,0.881-7.912-1.757-10.93c4.271,2.389,10.302,5.404,9.423,11.184c-1.635,6.029-7.791,9.17-12.816,12.061
		c-16.081,8.166-33.799,12.314-51.389,15.957c-51.135,10.051-103.528,12.313-155.544,10.807c-39.2-1.385-78.4-5.154-117.099-11.811
		c-6.911-1.637-14.7-3.018-19.726-8.42c-3.267-3.77-0.377-9.045,2.763-11.809C221.616,475.322,231.794,471.303,241.719,467.66
		L241.719,467.66z"/>
	<path fill="#2A56A5" stroke="#2A56A5" stroke-width="0.0938" stroke-miterlimit="10" d="M554.819,510.627
		c12.691-4.396,26.26-9.045,35.683-19.096c-1.632,10.93-11.056,18.469-20.354,23.369c-17.843,9.297-37.817,13.57-57.67,17.086
		c-41.965,6.66-84.559,8.293-127.15,7.539c-29.023-0.879-58.298-2.01-86.819-8.043c-6.785-1.883-14.071-3.141-19.977-7.158
		c25.38,4.271,51.137,6.031,76.894,7.035c42.341,1.256,84.809-0.375,126.898-5.654C506.7,522.314,531.199,518.166,554.819,510.627
		L554.819,510.627z"/>
	<path fill="#F90F0D" stroke="#F90F0D" stroke-width="0.0938" stroke-miterlimit="10" d="M223.752,696.955
		c0.126-41.211-0.125-82.42,0.126-123.758c8.544,0.252,17.087,0,25.631,0.252c-0.125,46.111,0,92.348-0.125,138.584
		c-0.252,12.939-0.503,26.51-6.785,38.068c-6.911,12.314-19.223,20.982-32.29,26.01c-4.146-4.523-7.916-9.299-12.062-13.82l0,0
		c10.554-6.158,21.108-14.953,23.62-27.643C224.255,722.211,223.501,709.52,223.752,696.955L223.752,696.955z"/>
	<path fill="#F90F0D" stroke="#F90F0D" stroke-width="0.0938" stroke-miterlimit="10" d="M273.255,622.828
		c16.962-7.289,35.809-11.059,54.277-9.049c9.549,1.131,19.475,4.65,25.631,12.314c5.151,6.531,7.036,14.951,6.911,23.119
		c0,28.145,0,56.16,0,84.305c-6.282,0-12.564,0-18.972,0c-0.628-4.148-1.256-8.418-1.759-12.689
		c-7.162,5.654-14.826,11.055-23.747,13.318c-10.177,2.639-21.359,2.387-31.285-1.508c-7.664-3.141-13.695-10.051-15.831-18.092
		c-3.142-11.688-1.508-25.381,6.785-34.805c7.413-8.668,18.595-12.939,29.651-14.949c10.177-2.012,20.605-2.012,31.034-2.012
		c-0.252-7.916,1.256-16.586-3.267-23.621c-3.643-5.404-10.303-7.539-16.459-7.916c-13.443-1.131-26.762,2.264-39.452,6.66
		C275.517,632.879,274.386,627.854,273.255,622.828 M304.415,681.127c-5.528,1.756-10.68,5.777-12.188,11.557
		c-1.759,6.406-1.256,13.945,2.89,19.35c4.02,5.277,11.308,6.531,17.59,5.779c8.795-1.006,16.459-6.031,23.244-11.434
		c0-9.424-0.125-18.721,0-28.145C325.397,678.234,314.592,677.607,304.415,681.127L304.415,681.127z"/>
	<path fill="#F90F0D" stroke="#F90F0D" stroke-width="0.0938" stroke-miterlimit="10" d="M494.136,622.828
		c17.086-7.289,35.934-11.184,54.528-9.049c9.296,1.131,18.847,4.525,25.002,11.811c5.78,6.912,7.538,16.084,7.413,24.879
		c-0.126,27.766,0.125,55.408-0.25,83.174c-6.283-0.25-12.564,0.125-18.848-0.25c-0.627-4.271-1.13-8.42-1.884-12.564
		c-8.796,7.539-19.35,13.695-31.285,14.699c-10.931,1.006-23.244-0.375-31.788-8.166c-8.921-8.293-10.428-21.736-8.167-33.172
		c2.137-10.551,10.051-19.221,19.603-23.871c14.949-7.285,32.037-7.664,48.371-7.537c-0.253-7.664,1.129-15.832-2.766-22.742
		c-3.016-5.529-9.424-8.041-15.452-8.67c-13.949-1.508-27.895,2.012-40.962,6.535C496.523,632.879,495.267,627.854,494.136,622.828
		 M524.918,681.25c-5.278,1.76-10.177,5.779-11.812,11.309c-1.759,6.408-1.256,13.945,2.764,19.475
		c4.146,5.4,11.56,6.531,17.968,5.779c8.67-1.256,16.584-6.031,23.119-11.811c-0.254-9.17-0.126-18.469-0.126-27.768
		C546.151,678.234,535.22,677.607,524.918,681.25L524.918,681.25z"/>
	<path fill="#F90F0D" stroke="#F90F0D" stroke-width="0.0938" stroke-miterlimit="10" d="M374.398,615.289c8.794,0,17.59,0,26.384,0
		c5.15,16.584,10.177,33.041,15.33,49.629c3.013,10.176,6.782,20.227,8.92,30.656c1.131,4.648,2.135,9.424,3.516,13.945
		c10.808-30.531,19.1-62.066,23.372-94.23c8.542,0,17.086,0,25.63,0c-7.412,40.707-19.098,80.787-36.687,118.229
		c-10.053,0-20.104,0-30.155,0C398.646,694.066,386.459,654.742,374.398,615.289L374.398,615.289z"/>
	<g>
		<path fill="#F90F0D" stroke="#F90F0D" stroke-width="0.0938" stroke-miterlimit="10" d="M586.092,613.004h-3.088v-1.113h7.52
			v1.113h-3.105v9.043h-1.326V613.004z"/>
		<path fill="#F90F0D" stroke="#F90F0D" stroke-width="0.0938" stroke-miterlimit="10" d="M600.216,617.586
			c-0.075-1.416-0.165-3.135-0.165-4.385h-0.031c-0.36,1.176-0.768,2.457-1.279,3.857l-1.794,4.928h-0.994l-1.657-4.836
			c-0.482-1.447-0.875-2.744-1.161-3.949h-0.03c-0.03,1.266-0.106,2.955-0.195,4.492l-0.271,4.354h-1.253l0.709-10.156h1.673
			l1.733,4.912c0.421,1.25,0.753,2.365,1.024,3.42h0.03c0.271-1.023,0.633-2.139,1.085-3.42l1.809-4.912h1.672l0.633,10.156h-1.296
			L600.216,617.586z"/>
	</g>
</g>
</svg>
